<svg width="48" height="48" viewBox="0 0 48 48" fill="none" xmlns="http://www.w3.org/2000/svg">
<rect width="48" height="48" rx="6" fill="#FEF2F2"/>
<path d="M14 18L20.913 21.917C23.4616 23.361 24.5384 23.361 27.087 21.917L34 18" stroke="#93531F" strokeWidth="1.6875" stroke-linejoin="round"/>
<path d="M14.0158 25.4756C14.0811 28.5412 14.1138 30.0739 15.245 31.2094C16.3761 32.3448 17.9503 32.3843 21.0988 32.4634C23.0393 32.5122 24.9607 32.5122 26.9012 32.4634C30.0497 32.3843 31.6239 32.3448 32.7551 31.2094C33.8862 30.0739 33.9189 28.5412 33.9842 25.4756C34.0053 24.4899 34.0053 23.5101 33.9842 22.5244C33.9189 19.4589 33.8862 17.9261 32.7551 16.7907C31.6239 15.6552 30.0497 15.6157 26.9012 15.5366C24.9607 15.4878 23.0393 15.4878 21.0988 15.5366C17.9503 15.6157 16.3761 15.6552 15.245 16.7907C14.1138 17.9261 14.0811 19.4589 14.0158 22.5244C13.9947 23.5101 13.9948 24.4899 14.0158 25.4756Z" stroke="#93531F" strokeWidth="1.6875" stroke-linejoin="round"/>
</svg>
