<svg width="32" height="32" viewBox="0 0 32 32" fill="none" xmlns="http://www.w3.org/2000/svg">
<path d="M25.544 15.045C25.848 15.4713 26 15.6845 26 16C26 16.3155 25.848 16.5287 25.544 16.955C24.1779 18.8706 20.6892 23 16 23C11.3108 23 7.8221 18.8706 6.45604 16.955C6.15201 16.5287 6 16.3155 6 16C6 15.6845 6.15201 15.4713 6.45604 15.045C7.8221 13.1294 11.3108 9 16 9C20.6892 9 24.1779 13.1294 25.544 15.045Z" stroke="#3D3D3D" strokeWidth="1.5"/>
<path d="M19 16C19 14.3431 17.6569 13 16 13C14.3431 13 13 14.3431 13 16C13 17.6569 14.3431 19 16 19C17.6569 19 19 17.6569 19 16Z" stroke="#3D3D3D" strokeWidth="1.5"/>
</svg>
