<svg width="32" height="34" viewBox="0 0 32 34" fill="none" xmlns="http://www.w3.org/2000/svg">
<path d="M12.0325 30.2324C13.0853 31.0548 14.4757 31.5549 15.9998 31.5549C17.5239 31.5549 18.9143 31.0548 19.9671 30.2324" stroke="#3D3D3D" strokeWidth="2.66667" strokeLinecap="round" strokeLinejoin="round"/>
<path d="M16.0003 4.44531C16.5073 4.44531 17.0058 4.48196 17.4924 4.55273C17.3893 5.0188 17.3333 5.50288 17.3333 6C17.3333 9.6819 20.3184 12.667 24.0003 12.667C24.6248 12.667 25.2287 12.5786 25.802 12.418C25.8982 12.9553 25.9514 13.5073 25.9514 14.0713C25.9516 15.4469 26.0344 16.7403 26.8635 17.9258C27.4967 18.8198 28.3517 19.7355 28.5247 20.835C28.8058 22.6242 27.5483 23.8664 26.009 24.4854C20.1074 26.8583 11.8941 26.8583 5.99244 24.4854C4.45312 23.8664 3.19561 22.6243 3.47682 20.835C3.64977 19.7355 4.50488 18.8198 5.13795 17.9258C5.96707 16.7403 6.04895 15.4469 6.04908 14.0713C6.04929 8.75499 10.5047 4.4455 16.0003 4.44531Z" fill="#3D3D3D"/>
<circle cx="24.0001" cy="5.99935" r="5.33333" fill="#E63D75"/>
</svg>
