<svg width="48" height="48" viewBox="0 0 48 48" fill="none" xmlns="http://www.w3.org/2000/svg">
<rect width="48" height="48" rx="6" fill="#FAF5FF"/>
<path d="M17.1429 26C16.4173 24.8082 16 23.4118 16 21.9189C16 17.5454 19.5817 14 24 14C28.4183 14 32 17.5454 32 21.9189C32 23.4118 31.5827 24.8082 30.8571 26" stroke="#BA1C44" strokeWidth="1.875" strokeLinecap="round"/>
<path d="M19.3829 29.0982C19.291 28.8216 19.2451 28.6833 19.2504 28.5713C19.2617 28.3343 19.4111 28.1262 19.6316 28.0405C19.7358 28 19.881 28 20.1716 28H27.8284C28.119 28 28.2642 28 28.3684 28.0405C28.5889 28.1262 28.7383 28.3343 28.7496 28.5713C28.7549 28.6833 28.709 28.8216 28.6171 29.0982C28.4473 29.6094 28.3624 29.8651 28.2315 30.072C27.9572 30.5056 27.5272 30.8167 27.0306 30.9408C26.7935 31 26.525 31 25.9881 31H22.0119C21.4749 31 21.2065 31 20.9694 30.9408C20.4728 30.8167 20.0428 30.5056 19.7685 30.072C19.6375 29.8651 19.5527 29.6094 19.3829 29.0982Z" stroke="#BA1C44" strokeWidth="1.875"/>
<path d="M27 31L26.8707 31.6466C26.7293 32.3537 26.6586 32.7072 26.5001 32.9866C26.2552 33.4185 25.8582 33.7439 25.3866 33.8994C25.0816 34 24.7211 34 24 34C23.2789 34 22.9184 34 22.6134 33.8994C22.1418 33.7439 21.7448 33.4185 21.4999 32.9866C21.3414 32.7072 21.2707 32.3537 21.1293 31.6466L21 31" stroke="#BA1C44" strokeWidth="1.875"/>
<path d="M24.3077 24L22.847 19.4789C22.7552 19.1947 22.4734 19 22.1538 19C21.8343 19 21.5525 19.1947 21.4607 19.4789L20 24M27 19V24M20.5385 22.5H23.7692" stroke="#BA1C44" strokeWidth="1.125" strokeLinecap="round" strokeLinejoin="round"/>
</svg>
