<svg width="48" height="48" viewBox="0 0 48 48" fill="none" xmlns="http://www.w3.org/2000/svg">
<rect width="48" height="48" rx="6" fill="#F0F5FE"/>
<path d="M34 23.5667C34 28.8499 29.5222 33.1334 24 33.1334C23.3507 33.1343 22.7032 33.0742 22.0654 32.9545C21.6063 32.8682 21.3768 32.8251 21.2165 32.8496C21.0563 32.8741 20.8292 32.9948 20.375 33.2364C19.0901 33.9197 17.592 34.161 16.1511 33.893C16.6987 33.2194 17.0728 32.4112 17.2378 31.5448C17.3378 31.0148 17.09 30.5 16.7189 30.1231C15.0333 28.4115 14 26.1051 14 23.5667C14 18.2836 18.4778 14 24 14C29.5222 14 34 18.2836 34 23.5667Z" stroke="#2E8BC9" strokeWidth="1.51875" stroke-linejoin="round"/>
<path d="M23.9955 24H24.0045M27.991 24H28M20 24H20.009" stroke="#2E8BC9" strokeWidth="1.51875" stroke-linecap="round" stroke-linejoin="round"/>
</svg>
