<svg width="16" height="16" viewBox="0 0 16 16" fill="none" xmlns="http://www.w3.org/2000/svg">
<path d="M14.3627 7.36203C14.5654 7.64623 14.6667 7.78836 14.6667 7.9987C14.6667 8.20903 14.5654 8.35116 14.3627 8.63536C13.452 9.91243 11.1262 12.6654 8.00004 12.6654C4.87389 12.6654 2.54811 9.91243 1.6374 8.63536C1.43471 8.35116 1.33337 8.20903 1.33337 7.9987C1.33337 7.78836 1.43471 7.64623 1.6374 7.36203C2.54811 6.08499 4.87389 3.33203 8.00004 3.33203C11.1262 3.33203 13.452 6.08499 14.3627 7.36203Z" stroke="#2E8BC9" strokeWidth="1.5"/>
<path d="M10 8C10 6.8954 9.1046 6 8 6C6.8954 6 6 6.8954 6 8C6 9.1046 6.8954 10 8 10C9.1046 10 10 9.1046 10 8Z" stroke="#2E8BC9" strokeWidth="1.5"/>
</svg>
