<svg width="48" height="48" viewBox="0 0 48 48" fill="none" xmlns="http://www.w3.org/2000/svg">
<rect width="48" height="48" rx="6" fill="#EEFEE7"/>
<path d="M24 34C29.5228 34 34 29.5228 34 24C34 18.4771 29.5228 14 24 14C18.4771 14 14 18.4771 14 24C14 25.3789 14.2791 26.6926 14.7838 27.8877C15.0628 28.5481 15.2023 28.8784 15.2195 29.128C15.2368 29.3776 15.1633 29.6521 15.0164 30.2012L14 34L17.7988 32.9836C18.3479 32.8367 18.6224 32.7632 18.872 32.7805C19.1216 32.7977 19.4519 32.9372 20.1124 33.2162C21.3075 33.7209 22.6211 34 24 34Z" stroke="#237B10" strokeWidth="1.51875" stroke-linejoin="round"/>
<path d="M20.5882 24.3773L21.4591 23.2956C21.8262 22.8397 22.2799 22.4153 22.3155 21.8083C22.3244 21.6549 22.2166 20.9666 22.0008 19.5899C21.916 19.0488 21.4109 19 20.9733 19C20.4031 19 20.1181 19 19.835 19.1293C19.4771 19.2928 19.1098 19.7523 19.0292 20.1373C18.9654 20.442 19.0128 20.6519 19.1076 21.0717C19.5102 22.8548 20.4548 24.6158 21.9195 26.0805C23.3842 27.5452 25.1452 28.4898 26.9283 28.8924C27.3481 28.9872 27.558 29.0346 27.8627 28.9708C28.2477 28.8902 28.7072 28.5229 28.8707 28.165C29 27.8819 29 27.5969 29 27.0267C29 26.5891 28.9512 26.084 28.4101 25.9992C27.0334 25.7834 26.3451 25.6756 26.1917 25.6845C25.5847 25.7201 25.1603 26.1738 24.7044 26.5409L23.6227 27.4118" stroke="#237B10" strokeWidth="1.51875"/>
</svg>
