<?xml version="1.0" encoding="UTF-8"?>
<svg id="Layer_1" data-name="Layer 1" xmlns="http://www.w3.org/2000/svg" viewBox="0 0 1080 1080">
  <defs>
    <style>
      .cls-1 {
        fill: #5eabde;
      }
    </style>
  </defs>
  <path class="cls-1" d="M331.41,404.46c-9.48-5.02-21.4-3.25-30.41,4.48-5.97,4.97-11.05,12.12-15.53,21.87-5.07,11.03-11.13,21.86-16.99,32.33-.77,1.37-1.53,2.75-2.31,4.14l-11.71-20.48c-3.33-5.83-7.11-12.43-13.18-17.35-5.07-4.12-10.77-6.08-16.27-5.96h-.02c-5.5-.12-11.2,1.84-16.27,5.96-6.07,4.92-9.85,11.52-13.18,17.35l-11.71,20.48c-.78-1.39-1.54-2.77-2.31-4.14-5.86-10.47-11.92-21.3-16.99-32.33-4.48-9.75-9.56-16.89-15.53-21.87-9.02-7.73-20.94-9.5-30.41-4.48-8.92,4.72-14.04,14.8-13.39,26.3.53,9.2,4.31,17.47,7.65,24.78l25.71,56.18c1.48,3.22,5.29,4.64,8.52,3.17,3.22-1.48,4.64-5.29,3.17-8.51l-25.71-56.18c-3.01-6.57-6.12-13.38-6.51-20.17-.14-2.44-.08-10.69,6.57-14.22,5.8-3.07,12.27-.35,16.05,2.9l.1.09c4.48,3.71,8.44,9.39,12.12,17.37,5.28,11.49,11.47,22.55,17.45,33.24,1.99,3.57,4.04,7.23,6.05,10.91l-10.48,18.33c-10.6,15.86-16.63,37.52-1.9,50.95,6.03,5.49,13.66,7.56,21.5,5.83,8.71-1.93,16.36-8.47,19.95-17.06,4.48-10.69,1.71-21.32-1.95-31.2-3.49-9.45-8.03-18.4-12.42-26.68l15.63-27.31c2.91-5.09,5.92-10.35,10.11-13.75,2.3-1.86,5.21-3.18,8.18-3.05h.02c2.97-.13,5.88,1.18,8.18,3.05,4.2,3.4,7.2,8.65,10.11,13.75l15.63,27.31c-4.39,8.27-8.93,17.22-12.42,26.68-3.66,9.88-6.43,20.51-1.95,31.2,3.59,8.59,11.24,15.13,19.95,17.06,7.84,1.73,15.48-.34,21.5-5.83,14.73-13.43,8.71-35.09-1.9-50.95l-10.48-18.33c2-3.68,4.05-7.34,6.05-10.91,5.98-10.69,12.17-21.75,17.45-33.24,3.68-7.99,7.64-13.66,12.12-17.37l.1-.09c3.78-3.25,10.25-5.97,16.05-2.9,6.65,3.53,6.72,11.78,6.57,14.22-.38,6.79-3.49,13.6-6.51,20.17l-25.71,56.18c-1.48,3.22-.05,7.03,3.17,8.51,3.23,1.48,7.04.05,8.52-3.17l25.71-56.18c3.34-7.31,7.12-15.58,7.65-24.78.66-11.5-4.47-21.58-13.39-26.3ZM191.42,511.63c3.26,8.82,4.77,15.53,2.15,21.78-1.97,4.73-6.24,8.45-10.88,9.48-2.57.56-6.42.55-10.07-2.78-11.55-10.52,2.41-32.07,4.04-34.49l6.8-11.85c2.9,5.75,5.69,11.74,7.95,17.87ZM277.36,540.1c-3.65,3.33-7.49,3.34-10.07,2.78-4.63-1.03-8.91-4.74-10.88-9.48-2.62-6.24-1.12-12.96,2.15-21.78,2.27-6.12,5.05-12.12,7.95-17.87l6.8,11.85c1.63,2.42,15.59,23.97,4.04,34.49Z"/>
  <g>
    <path class="cls-1" d="M419.07,517.16l-33.31-113.93h20.02l22.71,82.29,22.63-82.13,20.02-.16,22.71,82.29,22.63-82.29h20.02l-33.23,113.93h-18.83l-23.34-81.02-23.18,81.02h-18.83Z"/>
    <path class="cls-1" d="M578.74,519.53c-8.65,0-16.25-1.87-22.79-5.62-6.54-3.74-11.64-8.94-15.31-15.59-3.67-6.65-5.5-14.29-5.5-22.95,0-9.34,1.79-17.45,5.38-24.33,3.59-6.88,8.57-12.22,14.95-16.02,6.38-3.8,13.77-5.7,22.15-5.7,8.86,0,16.39,2.07,22.59,6.21,6.2,4.14,10.8,9.98,13.81,17.52,3.01,7.54,4.14,16.43,3.4,26.66h-18.91v-6.96c-.05-9.28-1.69-16.06-4.91-20.33-3.22-4.27-8.28-6.41-15.19-6.41-7.81,0-13.61,2.41-17.41,7.24-3.8,4.83-5.7,11.88-5.7,21.17,0,8.65,1.9,15.35,5.7,20.1,3.8,4.75,9.34,7.12,16.62,7.12,4.69,0,8.74-1.04,12.15-3.12,3.4-2.08,6.03-5.1,7.87-9.06l18.83,5.7c-3.27,7.7-8.32,13.69-15.15,17.96s-14.36,6.41-22.59,6.41ZM549.3,479.73v-14.4h58.79v14.4h-58.79Z"/>
    <path class="cls-1" d="M636.73,517.16v-116.31h19.07v116.31h-19.07Z"/>
    <path class="cls-1" d="M681.12,517.16v-116.31h19.07v116.31h-19.07Z"/>
    <path class="cls-1" d="M723.77,517.16v-113.93h19.23v53.96h-2.37v59.97h-16.85ZM764.99,519.53c-8.33,0-15.32-1.98-20.97-5.93-5.65-3.96-9.89-9.35-12.74-16.18-2.85-6.83-4.27-14.49-4.27-22.98s1.42-16.3,4.27-23.1c2.85-6.8,7.03-12.17,12.54-16.1,5.51-3.93,12.33-5.89,20.45-5.89s15.07,1.97,21.01,5.89c5.93,3.93,10.54,9.28,13.81,16.06,3.27,6.78,4.91,14.49,4.91,23.14s-1.61,16.22-4.83,23.02c-3.22,6.8-7.75,12.18-13.61,16.14s-12.71,5.93-20.57,5.93ZM762.06,502.44c4.96,0,9.05-1.24,12.26-3.72,3.22-2.48,5.6-5.84,7.16-10.09,1.56-4.25,2.33-8.98,2.33-14.2s-.79-9.88-2.37-14.12c-1.58-4.25-4.04-7.62-7.36-10.13-3.32-2.5-7.54-3.76-12.66-3.76s-8.81,1.17-11.87,3.52c-3.06,2.35-5.31,5.62-6.76,9.81-1.45,4.19-2.18,9.09-2.18,14.68s.72,10.42,2.18,14.64c1.45,4.22,3.74,7.5,6.88,9.85,3.14,2.35,7.26,3.52,12.38,3.52Z"/>
    <path class="cls-1" d="M826.86,555.13l16.46-45.18.32,13.29-37.27-91.54h19.86l26.43,67.73h-5.06l25.71-67.73h19.07l-47.63,123.43h-17.88Z"/>
    <path class="cls-1" d="M904,517.16v-85.45h17.01v26.51h2.29v58.94h-19.3ZM963.26,517.16v-41.14c0-2.69-.19-5.67-.55-8.94-.37-3.27-1.23-6.42-2.57-9.45-1.34-3.03-3.35-5.52-6.01-7.48-2.66-1.95-6.26-2.93-10.8-2.93-2.43,0-4.83.4-7.2,1.19-2.37.79-4.52,2.15-6.45,4.07-1.93,1.93-3.47,4.56-4.63,7.91-1.16,3.35-1.74,7.64-1.74,12.86l-11.31-4.83c0-7.28,1.41-13.87,4.23-19.78,2.82-5.91,6.98-10.61,12.46-14.12,5.49-3.51,12.24-5.26,20.25-5.26,6.33,0,11.55,1.06,15.67,3.17,4.11,2.11,7.38,4.8,9.81,8.07,2.43,3.27,4.22,6.75,5.38,10.44,1.16,3.69,1.91,7.19,2.26,10.48.34,3.3.51,5.97.51,8.03v47.71h-19.31Z"/>
  </g>
</svg>