<?xml version="1.0" encoding="UTF-8"?>
<svg id="Layer_1" data-name="Layer 1" xmlns="http://www.w3.org/2000/svg" viewBox="0 0 2967.81 1669.09">
  <defs>
    <style>
      .cls-1 {
        fill: #5eabde;
      }
    </style>
  </defs>
  <path class="cls-1" d="M727.09,7.89c-26.45-14.01-59.73-9.08-84.9,12.51-16.67,13.88-30.86,33.82-43.37,61.04-14.16,30.8-31.07,61.01-47.43,90.25-2.14,3.82-4.28,7.68-6.45,11.56l-32.69-57.16c-9.3-16.27-19.85-34.71-36.79-48.44-14.16-11.5-30.06-16.97-45.41-16.64h-.06c-15.35-.34-31.25,5.14-45.41,16.64-16.94,13.73-27.49,32.17-36.79,48.44l-32.69,57.16c-2.17-3.88-4.31-7.74-6.45-11.56-16.36-29.24-33.27-59.45-47.43-90.25-12.51-27.22-26.7-47.16-43.37-61.04C192.67-1.19,159.39-6.12,132.94,7.89c-24.89,13.18-39.21,41.32-37.37,73.43,1.47,25.69,12.02,48.78,21.35,69.18l71.78,156.82c4.13,8.99,14.77,12.97,23.79,8.84,8.99-4.13,12.97-14.77,8.84-23.76l-71.78-156.82c-8.41-18.35-17.1-37.34-18.17-56.3-.4-6.82-.21-29.85,18.35-39.7,16.18-8.56,34.25-.98,44.8,8.1l.28.24c12.51,10.37,23.55,26.21,33.82,48.5,14.74,32.08,32.02,62.94,48.72,92.79,5.57,9.97,11.28,20.18,16.88,30.46l-29.27,51.16c-29.6,44.28-46.42,104.74-5.29,142.24,16.82,15.32,38.14,21.1,60.03,16.27,24.31-5.38,45.66-23.64,55.69-47.62,12.51-29.85,4.77-59.51-5.44-87.1-9.76-26.39-22.42-51.38-34.68-74.47l43.64-76.24c8.13-14.22,16.51-28.9,28.23-38.38,6.42-5.2,14.56-8.87,22.84-8.5h.06c8.29-.37,16.42,3.3,22.84,8.5,11.71,9.48,20.09,24.16,28.23,38.38l43.64,76.24c-12.26,23.09-24.92,48.07-34.68,74.47-10.21,27.59-17.95,57.25-5.44,87.1,10.03,23.98,31.38,42.23,55.69,47.62,21.9,4.83,43.21-.95,60.03-16.27,41.13-37.49,24.31-97.95-5.29-142.24l-29.27-51.16c5.6-10.28,11.32-20.49,16.88-30.46,16.7-29.85,33.98-60.71,48.72-92.79,10.28-22.29,21.32-38.14,33.82-48.5l.28-.24c10.55-9.08,28.62-16.67,44.8-8.1,18.56,9.85,18.75,32.88,18.35,39.7-1.07,18.96-9.76,37.95-18.17,56.3l-71.78,156.82c-4.13,8.99-.15,19.63,8.84,23.76,9.02,4.13,19.66.15,23.79-8.84l71.78-156.82c9.33-20.4,19.88-43.49,21.35-69.18,1.83-32.11-12.48-60.25-37.37-73.43ZM336.31,307.08c9.11,24.62,13.3,43.37,5.99,60.8-5.5,13.21-17.43,23.58-30.37,26.45-7.19,1.56-17.92,1.53-28.1-7.77-32.23-29.36,6.73-89.51,11.28-96.27l18.99-33.09c8.1,16.06,15.87,32.78,22.2,49.88ZM576.2,386.56c-10.18,9.3-20.92,9.33-28.1,7.77-12.94-2.87-24.86-13.24-30.37-26.45-7.31-17.43-3.12-36.18,5.99-60.8,6.33-17.1,14.1-33.82,22.2-49.88l18.99,33.09c4.56,6.76,43.52,66.91,11.28,96.27Z"/>
</svg>